HIERARCHY
ROOT ui
{
	 OFFSET 0 0 0
	 CHANNELS 3 XPosition YPosition Z Position
	 EndSite
	 {
	 OFFSET 0 -1 0
	 }
}
ROOT li
{
	 OFFSET 0 0 0
	 CHANNELS 3 XPosition YPosition Z Position
	 EndSite
	 {
	 OFFSET 0 -1 0
	 }
}
ROOT ul
{
	 OFFSET 0 0 0
	 CHANNELS 3 XPosition YPosition Z Position
	 EndSite
	 {
	 OFFSET 0 -1 0
	 }
}
ROOT ll
{
	 OFFSET 0 0 0
	 CHANNELS 3 XPosition YPosition Z Position
	 EndSite
	 {
	 OFFSET 0 -1 0
	 }
}
ROOT tt
{
	 OFFSET 0 0 0
	 CHANNELS 3 XPosition YPosition Z Position
	 EndSite
	 {
	 OFFSET 0 -1 0
	 }
}
ROOT tb
{
	 OFFSET 0 0 0
	 CHANNELS 3 XPosition YPosition Z Position
	 EndSite
	 {
	 OFFSET 0 -1 0
	 }
}
ROOT td
{
	 OFFSET 0 0 0
	 CHANNELS 3 XPosition YPosition Z Position
	 EndSite
	 {
	 OFFSET 0 -1 0
	 }
}
ROOT v
{
	 OFFSET 0 0 0
	 CHANNELS 3 XPosition YPosition Z Position
	 EndSite
	 {
	 OFFSET 0 -1 0
	 }
}
ROOT bn
{
	 OFFSET 0 0 0
	 CHANNELS 3 XPosition YPosition Z Position
	 EndSite
	 {
	 OFFSET 0 -1 0
	 }
}
MOTION
Frames: 13
Frame Time: 0.002
5.886110067367554E-4	5.466330051422119E-4	0		0.4192519226074219	-2.40634228515625	0		-0.9245645751953125	0.2741551513671875	0		-0.679250732421875	-2.687021484375	0		1.61993212890625	-0.7225857543945312	0		3.20008837890625	-0.057505809783935546	0		4.65739404296875	0.030159408569335938	0		5.60129443359375	0.01519840431213379	0		-0.1228414535522461	5.97275927734375	0		
6.608039736747741E-4	6.590679883956909E-4	0		0.42459548950195314	-2.3943427734375	0		-0.8945892333984375	0.2696001892089844	0		-0.6899691162109375	-2.6776689453125	0		1.6200062255859375	-0.7224691162109375	0		3.214423583984375	-0.04569889068603516	0		4.66326513671875	0.021152862548828123	0		5.60136669921875	0.015325274467468262	0		-0.12278465270996093	5.97287158203125	0		
7.331169843673706E-4	7.795869708061219E-4	0		0.4055007019042969	-2.40179736328125	0		-0.894517578125	0.26971853637695314	0		-0.6909345092773438	-2.67952734375	0		1.6139263916015625	-0.7292097778320312	0		3.21038623046875	-0.0504805908203125	0		4.67333447265625	0.02106265449523926	0		5.59728466796875	0.008549826622009277	0		-0.12370430755615235	5.974013671875	0		
-0.006349784851074219	-0.0059356689453125	0		0.43045947265625	-2.40722265625	0		-0.8944474487304688	0.2698442687988281	0		-0.6800604858398438	-2.68864306640625	0		1.6139986572265625	-0.7290786743164063	0		3.19548291015625	-0.04901336288452148	0		4.6665625	0.02835397720336914	0		5.601509765625	0.015598978042602539	0		-0.13690953063964845	5.9624326171875	0		
8.716130256652832E-4	0.001041295051574707	0		0.39260748291015624	-2.4032451171875	0		-0.9234617919921875	0.2666213073730469	0		-0.6789437255859375	-2.686532958984375	0		1.6202216796875	-0.7220765991210938	0		3.215146240234375	-0.06731298828125	0		4.668296875	0.013455756187438965	0		5.60157763671875	0.015743136405944824	0		-0.11872379302978515	5.96816552734375	0		
0.004001214981079102	0.004114098072052002	0		0.449638427734375	-2.405369140625	0		-0.9242206420898438	0.2747803649902344	0		-0.7076692504882812	-2.67675244140625	0		1.6223525390625	-0.7189793090820312	0		3.206966796875	-0.03297695922851562	0		4.670826171875	0.03455292892456055	0		5.60164111328125	0.01589118671417236	0		-0.12160116577148437	5.97137109375	0		
9.941899776458741E-4	0.0013272249698638916	0		0.40986480712890627	-2.3973369140625	0		-0.8942582397460938	0.270260498046875	0		-0.678814697265625	-2.68624853515625	0		1.620345947265625	-0.7217867431640625	0		3.20049462890625	-0.056688926696777345	0		4.6687744140625	0.02974896240234375	0		5.6017001953125	0.01604252624511719	0		-0.12250361633300781	5.97353857421875	0		
0.0010466820001602173	0.0014778939485549927	0		0.4250035705566406	-2.39352001953125	0		-0.8942058715820312	0.27041070556640623	0		-0.6895584106445313	-2.6768564453125	0		1.617310791015625	-0.7255677490234375	0		3.1998359375	-0.043517650604248045	0		4.663650390625	0.02201491165161133	0		5.59759814453125	0.009286508560180665	0		-0.13669479370117188	5.96300244140625	0		
-0.0029744830131530763	-0.001278378963470459	0		0.40791900634765627	-2.398987060546875	0		-0.8941614379882813	0.27056494140625	0		-0.6797605590820313	-2.68792138671875	0		1.6142894287109375	-0.72834619140625	0		3.215587890625	-0.056715328216552736	0		4.66369482421875	0.022169069290161134	0		5.597642578125	0.009440651893615723	0		-0.12240962982177735	5.97384326171875	0		
-0.0029398670196533203	-0.0011220920085906983	0		0.4457432861328125	-2.408671875	0		-0.924030517578125	0.275386474609375	0		-0.7454891967773437	-2.676302490234375	0		1.6204774169921874	-0.72132568359375	0		3.209068115234375	-0.03641032791137695	0		4.66688427734375	0.029254589080810547	0		5.60183154296875	0.01650348663330078	0		-0.1214164810180664	5.97197802734375	0		
0.0011491589546203612	0.0019453020095825196	0		0.4120833435058594	-2.393764404296875	0		-0.8900151977539063	0.27478976440429687	0		-0.6843504028320313	-2.6715	0		1.6205001220703126	-0.72117041015625	0		3.204759521484375	-0.051164234161376956	0		4.66690771484375	0.029406736373901367	0		5.60603173828125	0.024563940048217773	0		-0.12234233093261719	5.97415673828125	0		
0.0011603970527648926	0.0021013760566711425	0		0.43597412109375	-2.399140380859375	0		-0.8940913696289062	0.27103692626953124	0		-0.6766114501953125	-2.683517578125	0		1.6205103759765624	-0.7210167236328126	0		3.218055908203125	-0.03830465698242187	0		4.66376416015625	0.022624162673950194	0		5.5977119140625	0.00989291000366211	0		-0.12136682891845703	5.97229150390625	0		
0.001158452033996582	0.002254926919937134	0		0.43490115356445314	-2.40196484375	0		-0.8649889526367187	0.27554730224609375	0		-0.6555350341796875	-2.679829833984375	0		1.61435302734375	-0.7277314453125	0		3.2047685546875	-0.05086563491821289	0		4.6579638671875	0.03189957237243652	0		5.5977099609375	0.01003553581237793	0		-0.13655319213867187	5.9637802734375	0		
